<svg xmlns="http://www.w3.org/2000/svg" xmlns:xlink="http://www.w3.org/1999/xlink" width="14" height="14" viewBox="0 0 14 14"><defs><style>.a{fill:#91918c;}.b{clip-path:url(#a);}</style><clipPath id="a"><rect class="a" width="14" height="14"/></clipPath></defs><g class="b"><path class="a" d="M6.507,13.015a6.507,6.507,0,1,1,6.507-6.507,6.515,6.515,0,0,1-6.507,6.507m0-11.569a5.061,5.061,0,1,0,5.061,5.061A5.067,5.067,0,0,0,6.507,1.446"/><path class="a" d="M24.343,25.067a.721.721,0,0,1-.511-.212L20.686,21.71a.723.723,0,0,1,1.022-1.022l3.146,3.145a.723.723,0,0,1-.511,1.234" transform="translate(-10.605 -10.606)"/></g></svg>