<svg xmlns="http://www.w3.org/2000/svg" width="10" height="12" viewBox="0 0 10 12"><defs><style>.a{fill:#7b7b6c;}</style></defs><path class="a" d="M12.128,4.748a1.564,1.564,0,0,1,.313.509,1.583,1.583,0,0,1,.13.589v7.714a.629.629,0,0,1-.182.455.594.594,0,0,1-.443.188H3.2a.594.594,0,0,1-.443-.187.629.629,0,0,1-.182-.455V2.846a.629.629,0,0,1,.182-.455A.594.594,0,0,1,3.2,2.2H9.029a1.468,1.468,0,0,1,.573.134,1.51,1.51,0,0,1,.495.321ZM9.237,3.114V5.632h2.448a.738.738,0,0,0-.143-.275L9.5,3.262a.706.706,0,0,0-.267-.147Zm2.5,10.232V6.489H9.029A.594.594,0,0,1,8.586,6.3.629.629,0,0,1,8.4,5.846V3.061h-5V13.346h8.333ZM8.391,9.375a4.946,4.946,0,0,0,.547.375A6.283,6.283,0,0,1,9.7,9.7q.957,0,1.152.328a.331.331,0,0,1,.013.348.02.02,0,0,1-.006.013l-.013.013v.007q-.039.254-.462.254a2.618,2.618,0,0,1-.749-.134,4.673,4.673,0,0,1-.846-.355,11.443,11.443,0,0,0-2.552.556q-1,1.754-1.576,1.754a.37.37,0,0,1-.182-.047l-.156-.08-.039-.033a.283.283,0,0,1-.039-.241,1.463,1.463,0,0,1,.365-.613,3.154,3.154,0,0,1,.859-.646.094.094,0,0,1,.15.04.039.039,0,0,1,.013.027q.339-.569.7-1.319A10.4,10.4,0,0,0,7,7.822a5.551,5.551,0,0,1-.2-1.068A2.676,2.676,0,0,1,6.848,5.9q.072-.268.273-.268h.143a.271.271,0,0,1,.228.1.548.548,0,0,1,.059.455.147.147,0,0,1-.026.054.179.179,0,0,1,.007.054v.2a9.015,9.015,0,0,1-.091,1.286,3.4,3.4,0,0,0,.951,1.594Zm-3.75,2.752a2.93,2.93,0,0,0,.892-1.058,3.76,3.76,0,0,0-.57.563A2.232,2.232,0,0,0,4.641,12.128ZM7.232,5.967a2.047,2.047,0,0,0-.013.884q.007-.047.046-.295,0-.02.046-.288a.152.152,0,0,1,.026-.054A.02.02,0,0,1,7.33,6.2a.014.014,0,0,0,0-.01.014.014,0,0,1,0-.01.392.392,0,0,0-.085-.241.02.02,0,0,1-.006.013v.013Zm-.807,4.426a9.346,9.346,0,0,1,1.849-.542.984.984,0,0,1-.085-.064,1.175,1.175,0,0,1-.1-.09,3.545,3.545,0,0,1-.827-1.179,9.091,9.091,0,0,1-.54,1.319q-.2.375-.293.556Zm4.206-.107q-.156-.161-.911-.161a2.4,2.4,0,0,0,.807.188.614.614,0,0,0,.117-.007s0-.011-.013-.02Z" transform="translate(-2.571 -2.204)"/></svg>