<svg xmlns="http://www.w3.org/2000/svg" width="14.268" height="18.544" viewBox="0 0 14.268 18.544"><defs><style>.a{fill:#7b7b6c;}</style></defs><path class="a" d="M7.58.457C3.768.457,0,3,0,7.112c0,2.616,1.471,4.1,2.363,4.1.368,0,.58-1.025.58-1.315,0-.346-.881-1.081-.881-2.519A5.021,5.021,0,0,1,7.279,2.274c2.53,0,4.4,1.438,4.4,4.08,0,1.973-.791,5.674-3.355,5.674A1.65,1.65,0,0,1,6.61,10.4c0-1.4.981-2.764.981-4.213,0-2.46-3.489-2.014-3.489.959a4.365,4.365,0,0,0,.357,1.884C3.946,11.236,2.9,14.524,2.9,16.8c0,.7.1,1.393.167,2.1.126.141.063.126.256.056,1.873-2.564,1.806-3.065,2.653-6.42a3.014,3.014,0,0,0,2.575,1.338c3.946,0,5.718-3.846,5.718-7.312C14.268,2.865,11.08.457,7.58.457Z" transform="translate(0 -0.457)"/></svg>