<svg xmlns="http://www.w3.org/2000/svg" width="10" height="12" viewBox="0 0 10 12"><defs><style>.a{fill:#7b7b6c;}</style></defs><path class="a" d="M12.128,4.748a1.564,1.564,0,0,1,.313.509,1.583,1.583,0,0,1,.13.589v7.714a.629.629,0,0,1-.182.455.594.594,0,0,1-.443.188H3.2a.594.594,0,0,1-.443-.188.629.629,0,0,1-.182-.455V2.846a.629.629,0,0,1,.182-.455A.594.594,0,0,1,3.2,2.2H9.029a1.468,1.468,0,0,1,.573.134,1.51,1.51,0,0,1,.495.321ZM9.237,3.114V5.632h2.448a.738.738,0,0,0-.143-.275L9.5,3.262a.706.706,0,0,0-.267-.147Zm2.5,10.232V6.489H9.029A.594.594,0,0,1,8.586,6.3.629.629,0,0,1,8.4,5.846V3.061h-5V13.346h8.333ZM5.364,11.779v.71H7.193v-.71H6.7L7.375,10.7a.965.965,0,0,0,.065-.11q.033-.064.049-.09t.023-.027h.013a.233.233,0,0,0,.033.067.377.377,0,0,0,.029.05l.039.054.042.057.7,1.078H7.87v.71H9.765v-.71H9.322L8.072,9.951l1.27-1.888h.436V7.346H7.961v.717h.482L7.773,9.128q-.026.047-.065.11t-.059.09l-.013.02H7.623a.233.233,0,0,0-.033-.067.8.8,0,0,0-.111-.154l-.69-1.065h.495V7.346H5.4v.717h.443l1.23,1.821-1.263,1.9H5.364Z" transform="translate(-2.571 -2.204)"/></svg>