<svg xmlns="http://www.w3.org/2000/svg" width="19.023" height="15.45" viewBox="0 0 19.023 15.45"><defs><style>.a{fill:#7b7b6c;}</style></defs><path class="a" d="M17.068,7.231c.012.169.012.338.012.507A11.017,11.017,0,0,1,5.987,18.831,11.018,11.018,0,0,1,0,17.081a8.065,8.065,0,0,0,.942.048,7.808,7.808,0,0,0,4.84-1.666,3.906,3.906,0,0,1-3.645-2.7,4.917,4.917,0,0,0,.736.06A4.124,4.124,0,0,0,3.9,12.687,3.9,3.9,0,0,1,.772,8.861V8.813a3.927,3.927,0,0,0,1.762.495A3.9,3.9,0,0,1,1.328,4.093a11.082,11.082,0,0,0,8.039,4.08,4.4,4.4,0,0,1-.1-.893,3.9,3.9,0,0,1,6.748-2.668,7.676,7.676,0,0,0,2.474-.942,3.888,3.888,0,0,1-1.714,2.149,7.816,7.816,0,0,0,2.245-.6,8.381,8.381,0,0,1-1.955,2.016Z" transform="translate(0 -3.381)"/></svg>