<svg xmlns="http://www.w3.org/2000/svg" width="9.071" height="9.071" viewBox="0 0 9.071 9.071"><defs><style>.a{fill:#7b7b6c;}</style></defs><path class="a" d="M-1765.222,2472.192l-2.828-2.828-2.828,2.828a1,1,0,0,1-1.414,0,1,1,0,0,1,0-1.414l2.828-2.828-2.828-2.828a1,1,0,0,1,0-1.415,1,1,0,0,1,1.414,0l2.828,2.829,2.828-2.829a1,1,0,0,1,1.415,0,1,1,0,0,1,0,1.415l-2.828,2.828,2.828,2.828a1,1,0,0,1,0,1.414,1,1,0,0,1-.707.293A1,1,0,0,1-1765.222,2472.192Z" transform="translate(1772.586 -2463.414)"/></svg>